<svg width="474" height="162" viewBox="0 0 474 162" fill="none" xmlns="http://www.w3.org/2000/svg">
<rect width="162" height="162" rx="27" fill="url(#paint0_linear_264_14)"/>
<path d="M218.44 69.504C213.64 69.504 209.224 68.376 205.192 66.12C201.208 63.864 198.04 60.744 195.688 56.76C193.336 52.776 192.16 48.288 192.16 43.296C192.16 38.304 193.336 33.816 195.688 29.832C198.04 25.848 201.208 22.752 205.192 20.544C209.224 18.288 213.64 17.16 218.44 17.16C223.24 17.16 227.632 18.288 231.616 20.544C235.6 22.752 238.744 25.848 241.048 29.832C243.4 33.816 244.576 38.304 244.576 43.296C244.576 48.288 243.4 52.776 241.048 56.76C238.744 60.744 235.576 63.864 231.544 66.12C227.56 68.376 223.192 69.504 218.44 69.504ZM218.44 54.6C221.608 54.6 224.056 53.592 225.784 51.576C227.512 49.512 228.376 46.752 228.376 43.296C228.376 39.792 227.512 37.032 225.784 35.016C224.056 32.952 221.608 31.92 218.44 31.92C215.224 31.92 212.752 32.952 211.024 35.016C209.296 37.032 208.432 39.792 208.432 43.296C208.432 46.752 209.296 49.512 211.024 51.576C212.752 53.592 215.224 54.6 218.44 54.6ZM260.417 48.984C260.417 45 261.233 41.424 262.865 38.256C264.497 35.088 266.681 32.616 269.417 30.84C272.201 29.016 275.177 28.104 278.345 28.104C280.505 28.104 282.401 28.416 284.033 29.04C285.665 29.616 287.129 30.6 288.425 31.992V28.392H304.337V88.44H288.425V64.536C286.985 66.216 285.449 67.464 283.817 68.28C282.233 69.048 280.409 69.432 278.345 69.432C275.129 69.432 272.153 68.568 269.417 66.84C266.681 65.112 264.497 62.712 262.865 59.64C261.233 56.52 260.417 52.968 260.417 48.984ZM288.425 48.696C288.425 46.344 287.801 44.64 286.553 43.584C285.353 42.48 284.009 41.928 282.521 41.928C281.081 41.928 279.737 42.528 278.489 43.728C277.241 44.88 276.617 46.632 276.617 48.984C276.617 51.288 277.217 52.968 278.417 54.024C279.665 55.032 281.033 55.536 282.521 55.536C284.009 55.536 285.353 54.984 286.553 53.88C287.801 52.776 288.425 51.048 288.425 48.696ZM354.498 28.392V69H338.514V62.808C337.266 64.728 335.586 66.288 333.474 67.488C331.41 68.688 328.938 69.288 326.058 69.288C321.402 69.288 317.754 67.728 315.114 64.608C312.522 61.488 311.226 57.264 311.226 51.936V28.392H327.138V49.92C327.138 51.84 327.642 53.376 328.65 54.528C329.706 55.632 331.098 56.184 332.826 56.184C334.602 56.184 335.994 55.632 337.002 54.528C338.01 53.376 338.514 51.84 338.514 49.92V28.392H354.498ZM401.029 48.336C401.029 49.44 400.957 50.496 400.813 51.504H375.109C375.349 55.008 376.813 56.76 379.501 56.76C381.229 56.76 382.477 55.968 383.245 54.384H400.165C399.589 57.264 398.365 59.856 396.493 62.16C394.669 64.416 392.341 66.216 389.509 67.56C386.725 68.856 383.653 69.504 380.293 69.504C376.261 69.504 372.661 68.664 369.493 66.984C366.373 65.304 363.925 62.904 362.149 59.784C360.421 56.616 359.557 52.92 359.557 48.696C359.557 44.472 360.421 40.8 362.149 37.68C363.925 34.512 366.373 32.088 369.493 30.408C372.661 28.728 376.261 27.888 380.293 27.888C384.325 27.888 387.901 28.728 391.021 30.408C394.189 32.04 396.637 34.392 398.365 37.464C400.141 40.536 401.029 44.16 401.029 48.336ZM384.829 44.52C384.829 43.176 384.397 42.168 383.533 41.496C382.669 40.776 381.589 40.416 380.293 40.416C377.461 40.416 375.805 41.784 375.325 44.52H384.829ZM191.44 113.696C191.44 109.472 192.304 105.8 194.032 102.68C195.808 99.512 198.256 97.088 201.376 95.408C204.544 93.728 208.144 92.888 212.176 92.888C217.456 92.888 221.896 94.376 225.496 97.352C229.144 100.328 231.448 104.456 232.408 109.736H215.488C214.864 107.624 213.64 106.568 211.816 106.568C210.52 106.568 209.488 107.168 208.72 108.368C208 109.568 207.64 111.344 207.64 113.696C207.64 116.048 208 117.824 208.72 119.024C209.488 120.224 210.52 120.824 211.816 120.824C213.64 120.824 214.864 119.768 215.488 117.656H232.408C231.448 122.936 229.144 127.064 225.496 130.04C221.896 133.016 217.456 134.504 212.176 134.504C208.144 134.504 204.544 133.664 201.376 131.984C198.256 130.304 195.808 127.904 194.032 124.784C192.304 121.616 191.44 117.92 191.44 113.696ZM256.771 134.504C252.691 134.504 249.019 133.664 245.755 131.984C242.491 130.304 239.923 127.904 238.051 124.784C236.227 121.616 235.315 117.92 235.315 113.696C235.315 109.472 236.227 105.8 238.051 102.68C239.923 99.512 242.491 97.088 245.755 95.408C249.019 93.728 252.691 92.888 256.771 92.888C260.851 92.888 264.523 93.728 267.787 95.408C271.051 97.088 273.595 99.512 275.419 102.68C277.291 105.8 278.227 109.472 278.227 113.696C278.227 117.92 277.291 121.616 275.419 124.784C273.595 127.904 271.051 130.304 267.787 131.984C264.523 133.664 260.851 134.504 256.771 134.504ZM256.771 120.68C258.259 120.68 259.507 120.104 260.515 118.952C261.523 117.752 262.027 116 262.027 113.696C262.027 111.392 261.523 109.664 260.515 108.512C259.507 107.312 258.259 106.712 256.771 106.712C255.283 106.712 254.035 107.312 253.027 108.512C252.019 109.664 251.515 111.392 251.515 113.696C251.515 116 251.995 117.752 252.955 118.952C253.963 120.104 255.235 120.68 256.771 120.68ZM337.464 93.104C342.648 93.104 346.656 94.664 349.488 97.784C352.368 100.904 353.808 105.128 353.808 110.456V134H337.896V112.472C337.896 110.744 337.368 109.4 336.312 108.44C335.304 107.432 333.936 106.928 332.208 106.928C330.432 106.928 329.04 107.432 328.032 108.44C327.024 109.4 326.52 110.744 326.52 112.472V134H310.608V112.472C310.608 110.744 310.08 109.4 309.024 108.44C308.016 107.432 306.648 106.928 304.92 106.928C303.144 106.928 301.752 107.432 300.744 108.44C299.736 109.4 299.232 110.744 299.232 112.472V134H283.248V93.392H299.232V98.864C300.384 97.136 301.944 95.744 303.912 94.688C305.928 93.632 308.28 93.104 310.968 93.104C313.896 93.104 316.488 93.752 318.744 95.048C321 96.296 322.8 98.072 324.144 100.376C325.632 98.264 327.528 96.536 329.832 95.192C332.136 93.8 334.68 93.104 337.464 93.104ZM400.045 113.336C400.045 114.44 399.973 115.496 399.829 116.504H374.125C374.365 120.008 375.829 121.76 378.517 121.76C380.245 121.76 381.493 120.968 382.261 119.384H399.181C398.605 122.264 397.381 124.856 395.509 127.16C393.685 129.416 391.357 131.216 388.525 132.56C385.741 133.856 382.669 134.504 379.309 134.504C375.277 134.504 371.677 133.664 368.509 131.984C365.389 130.304 362.941 127.904 361.165 124.784C359.437 121.616 358.573 117.92 358.573 113.696C358.573 109.472 359.437 105.8 361.165 102.68C362.941 99.512 365.389 97.088 368.509 95.408C371.677 93.728 375.277 92.888 379.309 92.888C383.341 92.888 386.917 93.728 390.037 95.408C393.205 97.04 395.653 99.392 397.381 102.464C399.157 105.536 400.045 109.16 400.045 113.336ZM383.845 109.52C383.845 108.176 383.413 107.168 382.549 106.496C381.685 105.776 380.605 105.416 379.309 105.416C376.477 105.416 374.821 106.784 374.341 109.52H383.845ZM421.084 100.88C422.716 98.528 424.708 96.656 427.06 95.264C429.412 93.824 431.86 93.104 434.404 93.104V110.168H429.868C426.844 110.168 424.612 110.696 423.172 111.752C421.78 112.808 421.084 114.68 421.084 117.368V134H405.1V93.392H421.084V100.88ZM454.693 78.344C460.021 78.344 464.293 79.688 467.509 82.376C470.773 85.016 472.405 88.904 472.405 94.04C472.405 98.264 470.965 101.672 468.085 104.264C465.253 106.856 461.533 108.2 456.925 108.296L456.493 113.408H442.381L441.949 98.144H447.997C450.829 98.144 452.989 97.832 454.477 97.208C456.013 96.584 456.781 95.576 456.781 94.184C456.781 93.272 456.541 92.576 456.061 92.096C455.629 91.568 455.029 91.304 454.261 91.304C453.301 91.304 452.581 91.616 452.101 92.24C451.669 92.816 451.453 93.584 451.453 94.544H436.405C436.261 91.568 436.837 88.856 438.133 86.408C439.477 83.96 441.541 82.016 444.325 80.576C447.109 79.088 450.565 78.344 454.693 78.344ZM449.653 134.576C446.869 134.576 444.637 133.832 442.957 132.344C441.277 130.856 440.437 128.984 440.437 126.728C440.437 124.424 441.277 122.528 442.957 121.04C444.637 119.504 446.869 118.736 449.653 118.736C452.389 118.736 454.597 119.504 456.277 121.04C457.957 122.528 458.797 124.424 458.797 126.728C458.797 128.984 457.957 130.856 456.277 132.344C454.597 133.832 452.389 134.576 449.653 134.576Z" fill="#EB5501"/>
<path d="M101.82 110.284L95.169 122.134C91.9893 127.63 89.2146 133.133 85.7627 138.171C82.9548 142.267 77.246 141.298 74.5973 136.645C69.3133 127.351 64.0758 118.025 58.8184 108.711C55.5059 102.85 52.1935 96.9881 48.8877 91.12C48.5093 90.4429 48.1774 89.7392 47.653 88.717L36.0229 68.2847C34.1045 64.8859 32.2259 61.5735 30.3672 58.2876C28.7209 55.3734 29.8627 51.676 32.8631 50.189C59.8539 36.8197 100.798 36.4878 128.619 50.1691C131.633 51.6494 132.794 55.3535 131.141 58.2743C123.428 71.9357 115.714 85.6103 107.954 99.3646" fill="#FFE192"/>
<path d="M81.0099 142.752C80.897 142.752 80.7908 142.752 80.678 142.745C77.5315 142.612 74.6107 140.7 72.8649 137.634C69.2139 131.215 65.5297 124.669 61.965 118.35C60.3386 115.462 58.7123 112.581 57.0859 109.694L53.6208 103.56C51.4634 99.7429 49.306 95.9193 47.1552 92.1024C46.8897 91.6311 46.6441 91.1465 46.352 90.5623C46.2126 90.2902 46.0665 89.9981 45.9006 89.6728L34.2904 69.2803L28.6347 59.2766C27.566 57.3847 27.327 55.2074 27.9642 53.1297C28.6015 51.0519 30.0287 49.3791 31.9737 48.4166C59.6814 34.6955 101.608 34.6822 129.495 48.39C131.427 49.3393 132.9 51.0586 133.531 53.1164C134.175 55.1875 133.936 57.3715 132.874 59.2633L109.687 100.354C109.149 101.31 107.934 101.648 106.972 101.11C106.016 100.573 105.677 99.3579 106.215 98.3954L129.402 57.3051C129.927 56.3757 130.039 55.307 129.727 54.2913C129.409 53.2691 128.705 52.4393 127.736 51.968C100.851 38.7514 60.4382 38.758 33.7395 51.9879C32.7836 52.4592 32.0799 53.2823 31.7679 54.3046C31.4559 55.3203 31.5754 56.389 32.0932 57.3184L37.7489 67.3154L49.379 87.7411C49.379 87.7411 49.4055 87.7942 49.4188 87.8208C49.5981 88.1726 49.7574 88.4912 49.9034 88.7767C50.1623 89.2944 50.3814 89.7326 50.6203 90.1508C52.7711 93.9677 54.9285 97.7913 57.0859 101.608L60.551 107.742C62.1774 110.63 63.8037 113.51 65.4301 116.398C68.9948 122.718 72.6723 129.256 76.3233 135.669C77.3722 137.507 79.1047 138.696 80.8439 138.769C81.7799 138.809 83.0943 138.543 84.1166 137.056C86.4665 133.624 88.4778 130.006 90.6087 126.176C91.5248 124.53 92.4674 122.83 93.4432 121.144L100.081 109.315C100.619 108.359 101.834 108.014 102.79 108.552C103.746 109.089 104.091 110.304 103.553 111.26L96.9017 123.109C95.9325 124.789 94.9965 126.475 94.0871 128.101C92.0093 131.845 89.8586 135.715 87.3958 139.3C85.8823 141.504 83.5722 142.752 81.0032 142.752H81.0099Z" fill="#1D1D1B"/>
<path d="M71.8825 78.2485C76.5558 74.6639 82.3111 72.1414 85.7164 71.6103C94.054 70.2628 94.2996 67.4748 94.2996 65.4103C94.2996 62.7816 93.9942 58.8518 80.2267 58.8518C72.3604 58.8518 67.4681 62.0713 67.4681 71.2519H41.0814C41.0814 50.6271 64.846 43.8296 80.9436 43.8296C106.826 43.8296 120.766 49.1534 120.766 66.3795C120.766 81.3552 103.998 83.486 96.5632 86.513C93.1047 88.0597 91.1996 89.7326 91.1996 95.0962H65.47C65.47 91.8103 65.7289 88.7833 66.4325 86.1745M79.0318 96.53C86.5396 96.53 93.1578 101.827 93.1578 108.452C93.1578 115.077 86.4267 119.817 79.0318 119.817C71.6369 119.817 64.7929 115.29 64.7929 108.452C64.7929 101.615 71.4178 96.53 79.0318 96.53Z" fill="#EB5C5E"/>
<path d="M79.0317 121.808C71.0526 121.808 62.8014 116.81 62.8014 108.452C62.8014 103.766 65.5164 99.6168 69.6719 97.0943H65.4633C64.3614 97.0943 63.4719 96.2048 63.4719 95.1029C63.4719 91.3258 63.8104 88.239 64.5074 85.6634C64.7928 84.6013 65.8881 83.9707 66.9503 84.2561C68.0124 84.5416 68.643 85.6368 68.3576 86.699C67.8796 88.4846 67.5942 90.5889 67.5012 93.1114H89.3076C89.7856 88.3386 92.089 86.3471 95.7533 84.7009C95.7732 84.6942 95.7931 84.6809 95.8197 84.6743C97.1938 84.1167 98.8467 83.5923 100.593 83.0347C108.698 80.4657 118.781 77.2728 118.781 66.3795C118.781 51.7755 107.821 45.8211 80.9502 45.8211C68.2912 45.8211 44.7389 50.7798 43.1657 69.2605H65.5629C66.2267 61.0291 71.1522 56.8604 80.2332 56.8604C91.6443 56.8604 96.2976 59.3364 96.2976 65.4103C96.2976 68.7958 95.0563 72.1215 86.035 73.5753C83.0478 74.04 77.651 76.3368 73.0972 79.8284C72.2276 80.4989 70.973 80.3329 70.3025 79.4633C69.6321 78.5937 69.798 77.3391 70.6676 76.6687C75.2214 73.177 81.2821 70.2828 85.4044 69.6388C92.3081 68.5236 92.3081 66.7247 92.3081 65.4037C92.3081 63.6977 92.3081 60.8366 80.2266 60.8366C72.679 60.8366 69.4595 63.9499 69.4595 71.2453C69.4595 72.3472 68.57 73.2367 67.468 73.2367H41.0813C39.9794 73.2367 39.0898 72.3472 39.0898 71.2453C39.0898 51.0321 60.7834 41.8315 80.9435 41.8315C101.104 41.8315 122.757 44.7457 122.757 66.3729C122.757 80.1869 110.138 84.1765 101.787 86.8251C100.134 87.3495 98.5679 87.8474 97.3465 88.3386C94.4588 89.6397 93.191 90.6819 93.191 95.0896C93.191 96.1915 92.3014 97.0811 91.1995 97.0811H88.2057C92.3745 99.6235 95.1559 103.812 95.1559 108.439C95.1559 115.933 88.0729 121.795 79.0384 121.795L79.0317 121.808ZM79.0317 98.5215C72.3936 98.5215 66.7843 103.069 66.7843 108.452C66.7843 114.32 73.0109 117.825 79.0317 117.825C85.0526 117.825 91.1663 114.32 91.1663 108.452C91.1663 103.069 85.6102 98.5215 79.0317 98.5215Z" fill="#1D1D1B"/>
<path d="M34.3037 44.1217C31.2236 45.3431 29.179 46.2724 26.0923 47.7461C25.1961 46.0998 24.0942 44.3673 23.271 42.5152C21.2663 38.0212 23.271 33.3811 28.0306 31.3432C36.2088 27.8449 44.7057 25.3423 53.4548 23.7757C78.6467 19.2684 103.447 20.6026 127.723 29.0597C129.794 29.7832 131.852 30.5798 133.85 31.4826C138.616 33.6466 140.329 38.6319 137.939 43.2653C137.142 44.8054 136.239 46.2924 135.423 47.7328C104.277 32.8368 73.2432 30.6727 42.0836 41.2208" fill="#ED6E3E"/>
<path d="M26.0923 49.7442C25.382 49.7442 24.7049 49.3658 24.3398 48.7086C24.0676 48.2174 23.7822 47.7129 23.4901 47.2017C22.7865 45.9737 22.0629 44.7058 21.4456 43.3317C20.2972 40.7494 20.1976 37.968 21.1668 35.4986C22.1957 32.8766 24.3531 30.7523 27.2407 29.5176C35.4322 26.0127 44.1282 23.4238 53.103 21.8174C79.357 17.1175 104.688 18.9231 128.38 27.181C130.703 27.9909 132.761 28.8074 134.673 29.677C137.474 30.9448 139.525 33.1222 140.455 35.7973C141.384 38.4725 141.119 41.4531 139.711 44.188C139.14 45.2966 138.523 46.3587 137.926 47.3876C137.667 47.839 137.408 48.2838 137.156 48.7219C136.638 49.6313 135.509 49.9898 134.56 49.5384C104.091 34.9609 73.1901 32.8035 42.7209 43.1193C41.6787 43.4711 40.5502 42.9135 40.1984 41.8713C39.8466 40.8291 40.4042 39.7006 41.4464 39.3488C72.3803 28.8804 103.712 30.8386 134.613 45.1638C135.144 44.2477 135.682 43.3051 136.166 42.3691C137.069 40.6167 137.255 38.7447 136.691 37.1117C136.127 35.4787 134.819 34.1312 133.027 33.3147C131.228 32.4982 129.276 31.7282 127.072 30.9581C104.031 22.9127 79.3769 21.1602 53.8 25.7339C45.1239 27.2872 36.7134 29.7898 28.8073 33.1686C26.9088 33.9785 25.5081 35.3194 24.8775 36.9458C24.2933 38.4393 24.3664 40.0856 25.0899 41.7053C25.6143 42.8736 26.2715 44.0353 26.9154 45.1572C29.1923 44.0884 31.0178 43.2852 33.5669 42.2696C34.5891 41.8646 35.7508 42.3625 36.1558 43.3848C36.5607 44.4071 36.0628 45.5621 35.0405 45.9737C32.0003 47.1818 30.0088 48.0846 26.9486 49.545C26.6698 49.6778 26.3777 49.7375 26.0923 49.7375V49.7442Z" fill="#1D1D1B"/>
<defs>
<linearGradient id="paint0_linear_264_14" x1="152.795" y1="162" x2="-32.0102" y2="87.1373" gradientUnits="userSpaceOnUse">
<stop stop-color="#EB5501" stop-opacity="0.92"/>
<stop offset="1" stop-color="#FCE302"/>
</linearGradient>
</defs>
</svg>
