<svg width="93" height="75" viewBox="0 0 93 75" fill="none" xmlns="http://www.w3.org/2000/svg">
<path d="M92.1589 69.772C91.8027 70.5837 91.5411 71.4562 91.0722 72.1957C89.4534 74.7479 86.3173 74.7637 84.7684 72.1641C84.1957 71.2037 83.7471 69.9907 83.7516 68.8927C83.7674 65.0577 83.9748 61.2226 84.1664 57.3899C84.3333 54.0666 84.5565 50.7456 84.7909 47.4269C84.9735 44.8567 85.2125 42.2909 85.4222 39.723C85.4673 39.1593 85.4989 38.5934 85.5462 37.89C85.1652 37.89 84.8473 37.899 84.5339 37.89C82.8182 37.8269 81.5782 36.7154 81.5827 35.0154C81.5939 29.4083 81.4474 23.7853 81.7991 18.1962C82.2072 11.6918 84.6331 5.81184 88.5268 0.572192C88.7522 0.267824 89.3745 -0.0883997 89.5819 0.0198201C89.9088 0.191168 90.2132 0.730013 90.229 1.12456C90.2966 2.92146 90.2605 4.72287 90.2605 6.52428C90.2605 16.1829 90.1997 25.8438 90.2921 35.5024C90.3259 39.1233 90.7115 42.7396 90.9459 46.3559C91.1624 49.6769 91.4081 52.9934 91.6088 56.3144C91.7689 58.9478 91.8748 61.5856 92.0123 64.219C92.0281 64.5121 92.1093 64.8007 92.1589 65.0915V69.772Z" fill="#D5D5D5"/>
<path d="M47.5295 4.77923C64.3464 4.74767 78.1399 18.451 78.0858 35.2769C78.0317 52.3914 64.263 65.7994 47.5633 65.813C30.8862 65.8265 17.0408 52.423 17.0228 35.313C17.0047 18.3247 30.7329 4.78374 47.5273 4.77923H47.5295ZM47.5182 12.163C34.7956 12.1765 24.4561 22.5318 24.4404 35.2792C24.4246 48.0401 34.8385 58.5014 47.5769 58.4247C60.2882 58.348 70.6502 48.2881 70.6615 35.3107C70.675 22.2951 60.2273 12.2239 47.516 12.163H47.5182Z" fill="#D5D5D5"/>
<path d="M12.4437 65.9618C12.3197 67.4746 12.2183 68.9897 12.0537 70.498C12.0109 70.8993 11.8147 71.3051 11.6118 71.6659C10.8182 73.066 9.75629 74.1324 8.00899 74.0805C6.27296 74.0287 5.16597 72.951 4.54596 71.481C4.1266 70.4867 3.829 69.3346 3.87184 68.2705C4.11984 62.2801 4.43548 56.2896 4.83454 50.3082C5.17949 45.1362 5.68903 39.9755 6.08132 34.8057C6.23238 32.8172 5.24488 31.4103 3.62834 30.3169C1.17085 28.6485 -0.0691695 26.2902 0.00297709 23.3029C0.0390504 21.8058 0.154034 20.3088 0.246472 18.8117C0.460657 15.3397 0.681606 11.8699 0.895791 8.39784C0.970192 7.20066 1.01303 6.00122 1.10096 4.8063C1.17536 3.81879 1.81115 3.18525 2.60476 3.24613C3.42317 3.30926 3.96202 3.97661 3.91467 4.98215C3.72754 8.966 3.51336 12.9476 3.3127 16.9314C3.26535 17.8896 3.21124 18.8478 3.20223 19.8083C3.19321 20.7417 3.70725 21.3346 4.53694 21.4248C5.39368 21.5172 6.04751 21.0009 6.17827 20.0292C6.27522 19.319 6.26845 18.5953 6.28875 17.8761C6.39471 13.6781 6.49617 9.48004 6.59988 5.28201C6.60664 5.01146 6.61341 4.73866 6.66075 4.47487C6.79377 3.71959 7.31233 3.30926 8.02252 3.26416C8.73948 3.21907 9.32341 3.57755 9.50378 4.31254C9.63229 4.82884 9.65032 5.38121 9.66385 5.9178C9.77884 10.4157 9.87804 14.9136 9.99753 19.4115C10.0088 19.8218 10.0336 20.275 10.2095 20.6312C10.5544 21.3324 11.1879 21.5759 11.9455 21.3639C12.7729 21.134 13.0502 20.5027 13.0187 19.7113C12.9262 17.4635 12.827 15.2179 12.7143 12.9701C12.5813 10.3052 12.4189 7.6403 12.2904 4.97539C12.2431 3.99014 12.7955 3.30249 13.6116 3.24387C14.3849 3.18751 15.0388 3.81428 15.0929 4.72513C15.4694 10.9207 15.8639 17.114 16.1931 23.3119C16.3374 26.0444 15.3296 28.4523 13.057 29.9156C10.4169 31.6155 9.94116 33.834 10.2455 36.7041C10.7889 41.7972 11.1361 46.9128 11.4968 52.024C11.8237 56.6594 12.056 61.3016 12.331 65.9415L12.4415 65.9618H12.4437Z" fill="#D5D5D5"/>
<path d="M64.5133 35.3108C64.4862 44.6628 56.8071 52.3284 47.5092 52.2878C38.155 52.245 30.5751 44.6064 30.5954 35.2364C30.6134 25.9318 38.2384 18.318 47.5408 18.3113C56.8612 18.3045 64.5403 25.9971 64.5133 35.3108Z" fill="#D5D5D5"/>
</svg>
